<?xml version="1.0" standalone="no"?>
<!DOCTYPE svg PUBLIC "-//W3C//DTD SVG 20010904//EN"
 "http://www.w3.org/TR/2001/REC-SVG-20010904/DTD/svg10.dtd">
<svg version="1.0" xmlns="http://www.w3.org/2000/svg"
 width="105.000000pt" height="105.000000pt" viewBox="0 0 105.000000 105.000000"
 preserveAspectRatio="xMidYMid meet">
<metadata>
Created by potrace 1.14, written by Peter Selinger 2001-2017
</metadata>
<g transform="translate(0.000000,105.000000) scale(0.100000,-0.100000)"
fill="#000000" stroke="none">
<path d="M296 1039 c-61 -15 -153 -68 -192 -112 -20 -22 -50 -69 -68 -106
l-31 -66 0 -231 0 -230 37 -76 c45 -89 94 -138 187 -182 l66 -31 225 0 225 0
66 31 c93 44 142 93 187 182 l37 76 0 230 0 231 -31 66 c-44 93 -93 142 -182
187 l-76 37 -205 2 c-113 1 -223 -2 -245 -8z m386 -219 c151 -71 225 -250 168
-405 -30 -81 -114 -164 -191 -191 -87 -30 -173 -25 -254 15 -62 31 -72 33
-129 27 -33 -4 -71 -10 -84 -13 -23 -5 -23 -4 13 67 37 73 37 73 25 136 -21
112 5 207 81 289 70 76 147 107 254 101 46 -2 86 -11 117 -26z"/>
<path d="M497 666 c-52 -19 -85 -52 -98 -97 -33 -108 66 -214 176 -189 97 22
146 141 93 220 -46 66 -105 89 -171 66z m103 -29 c34 -17 70 -74 70 -112 0
-18 -10 -47 -23 -66 -72 -107 -227 -62 -227 66 0 95 95 155 180 112z"/>
</g>
</svg>
